<svg id="Layer_1" data-name="Layer 1" xmlns="http://www.w3.org/2000/svg" viewBox="0 0 491.82168 415.8764"><title>branding-1</title><path d="M239.7878,461.14607a13.20941,13.20941,0,0,1-6.43-1.859c-8.27619-4.67287-205.07136-119.521-225.30347-242.77261-9.19294-54.15178,2.763-104.5729,30.35453-135.38581,22.98236-25.21056,55.17039-38.28695,94.71785-35.48577,33.10477,1.87169,61.60035,23.33887,84.59544,41.08812,22.99508,16.807,51.49067,16.807,70.806.92948,12.87266-11.2047,39.54746-29.88343,74.48575-31.74239,40.46422-1.87169,76.332,12.13417,101.16058,39.21643,25.74532,28.01174,36.77177,69.08712,31.25852,112.97641-13.78941,96.16937-144.375,190.47978-149.88823,194.21045-6.44271,4.67287-14.71889,2.80116-19.31537-3.73064-4.58375-6.53183-2.75024-14.93535,3.69247-19.6082.904-.92948,126.89317-90.567,137.91958-175.54444,4.6092-35.473-3.667-67.22816-23.89909-89.63755-19.31534-21.46717-46.90692-31.74239-79.08222-29.87069-26.6748,1.859-47.82368,15.86483-57.93337,25.21056-28.521,24.26835-71.73549,24.26835-104.84028,0-20.23211-14.94808-45.0607-33.61408-69.88927-35.48577-30.3418-1.87169-55.17039,6.53183-72.63952,26.14-22.07834,25.21056-31.27128,67.22817-23.91183,112.04694C54.03181,322.0296,245.31375,434.07653,247.14726,435.006c6.44271,3.73064,9.19294,12.13416,5.51323,18.67872-3.667,4.66015-8.27619,7.46129-12.85994,7.46129Z" transform="translate(-4.99824 -45.26966)" style="fill:#232a35"/><path d="M389.68878,232.39206c12.85994,5.60234,34.02151,16.807,41.38095,47.62,1.83351,8.40352-.9295,16.807-6.44271,21.46718-.91673,0-.91673.94221-1.83351.94221-11.03918,10.26248-27.59156,6.53183-34.951-6.54456-5.51323-10.26248-14.70617-19.60823-25.74532-27.06951-11.03918-7.474-11.95591-23.3516-2.763-33.61409l1.84623-1.8717C367.61043,226.78971,378.6496,227.71921,389.68878,232.39206Z" transform="translate(-4.99824 -45.26966)" style="fill:#232a35"/></svg>