<svg id="Layer_1" data-name="Layer 1" xmlns="http://www.w3.org/2000/svg" viewBox="0 0 492.09803 444.90488"><title>interface-1</title><path d="M100.3685,313.23366C42.05962,291.86255,3.75678,237.72924,3.75678,176.07072,3.7453,95.70243,70.19884,29.421,152.64345,29.421A149.629,149.629,0,0,1,250.5973,65.659a150.46974,150.46974,0,0,1,96.35935-34.57465c81.6072,0,148.89816,65.44406,148.89816,146.63828,0,63.67748-41.40012,116.66364-99.03217,136.555q.61944,6.60751.61946,13.39853c-1.68628,81.19421-68.13983,146.64976-149.747,146.64976-81.59572,0-148.04926-65.45555-148.04926-146.64976a140.43047,140.43047,0,0,1,.73417-14.44244Zm25.58111,6.99753c-.14912,2.47781-.22943,4.95561-.22943,7.45637,0,67.10741,55.52134,121.77986,122.82374,121.77986,67.291,0,123.66115-54.68393,123.66115-121.79134,0-2.37458-.0803-4.74913-.218-7.10076A157.43764,157.43764,0,0,1,346.1192,322.709c-23.55068,0-46.264-4.9671-66.45353-15.73869-5.88481-3.3267-8.4085-10.78308-5.88481-16.5761a13.80853,13.80853,0,0,1,16.817-5.793c17.66589,8.28232,36.18063,13.24942,55.52134,13.24942a124.85723,124.85723,0,0,0,21.77261-1.89278,134.95007,134.95007,0,0,0-7.46786-20.47636c-3.3611-5.793,0-13.24942,5.88481-16.56463,5.89627-3.3267,13.46736,0,16.82846,5.793a158.87182,158.87182,0,0,1,9.05091,24.36516c45.42654-18.033,77.59222-61.92234,77.59222-113.00428,0-67.1074-55.52134-120.9654-123.66115-120.9654a123.54845,123.54845,0,0,0-78.37228,28.02451,143.69931,143.69931,0,0,1,32.10831,73.8755A12.907,12.907,0,0,1,288.923,171.09215c-6.73368.82593-13.46736-4.12968-14.30477-10.7716a118.72839,118.72839,0,0,0-24.847-59.0201,122.68846,122.68846,0,0,0-11.32222,16.77111c-3.37258,5.8045-10.94367,8.28231-16.82848,4.9671s-8.4085-10.7716-5.0474-16.56463a146.46335,146.46335,0,0,1,15.96812-22.9427,123.97089,123.97089,0,0,0-79.898-29.25195c-68.13983,0-123.66116,54.68393-123.66116,121.79133,0,50.15274,29.91728,93.83566,76.16978,112.316a148.359,148.359,0,0,1,66.8321-86.64311A13.59369,13.59369,0,0,1,189.65,205.89623c3.37258,5.793,1.68628,13.24942-4.19851,17.39058a121.15161,121.15161,0,0,0-55.31486,72.24657,119.18723,119.18723,0,0,0,22.50679,2.31721,12.43063,12.43063,0,1,1,0,24.85842,149.17139,149.17139,0,0,1-26.69383-2.46634Z" transform="translate(-3.75677 -29.42097)" style="fill:#232a35"/><path d="M276.30461,190.98348c5.88481,25.67289,0,48.868-5.0474,62.95479-2.52369,8.29378-11.78108,11.609-20.18958,9.11973-15.14218-5.80451-38.70435-17.402-52.16024-36.45595-4.21-4.9671-3.3611-13.24942.83741-18.228,16.82848-19.04244,41.228-26.49883,59.73131-28.99957C267.0472,178.54856,274.61829,183.52713,276.30461,190.98348Z" transform="translate(-3.75677 -29.42097)" style="fill:#232a35"/></svg>