<svg xmlns="http://www.w3.org/2000/svg" width="44" height="39" viewBox="0 0 44 39">
    <g fill="#232A35" fill-rule="evenodd">
        <path d="M9.01 24.813C3.927 22.95.588 18.231.588 12.856.587 5.85 6.38.072 13.567.072c3.252 0 6.25 1.184 8.539 3.159a13.117 13.117 0 0 1 8.4-3.014c7.114 0 12.98 5.705 12.98 12.783 0 5.551-3.609 10.17-8.633 11.904.036.384.054.773.054 1.168-.147 7.078-5.94 12.784-13.054 12.784-7.113 0-12.906-5.706-12.906-12.784 0-.423.021-.843.064-1.259zm2.23.61c-.013.216-.02.432-.02.65 0 5.85 4.84 10.616 10.707 10.616 5.866 0 10.78-4.767 10.78-10.617 0-.207-.007-.414-.019-.619-.733.122-1.486.186-2.255.186-2.053 0-4.033-.433-5.793-1.372-.513-.29-.733-.94-.513-1.445.293-.505.953-.722 1.466-.505 1.54.722 3.154 1.155 4.84 1.155.648 0 1.282-.056 1.898-.165a11.764 11.764 0 0 0-.651-1.785c-.293-.505 0-1.155.513-1.444.514-.29 1.174 0 1.467.505.323.695.588 1.402.789 2.124 3.96-1.572 6.764-5.398 6.764-9.851 0-5.85-4.84-10.545-10.78-10.545-2.53 0-4.935.887-6.832 2.443 1.487 1.792 2.49 4 2.799 6.44.073.578-.367 1.156-.953 1.228-.587.072-1.174-.36-1.247-.939a10.35 10.35 0 0 0-2.166-5.145c-.365.455-.696.943-.987 1.462-.294.506-.954.722-1.467.433-.513-.289-.733-.939-.44-1.444.403-.716.87-1.385 1.392-2a10.807 10.807 0 0 0-6.965-2.55c-5.94 0-10.78 4.767-10.78 10.617 0 4.372 2.608 8.18 6.64 9.791a12.933 12.933 0 0 1 5.826-7.553c.514-.288 1.174-.144 1.54.362.294.505.147 1.155-.366 1.516-2.393 1.392-4.1 3.698-4.822 6.298.643.124 1.302.202 1.962.202.586 0 1.1.506 1.1 1.084 0 .577-.514 1.083-1.1 1.083-.786 0-1.572-.077-2.327-.215z"/>
        <path d="M24.347 14.156c.513 2.238 0 4.26-.44 5.488-.22.723-1.027 1.012-1.76.795-1.32-.506-3.374-1.517-4.547-3.178-.367-.433-.293-1.155.073-1.589 1.467-1.66 3.594-2.31 5.207-2.528.66-.072 1.32.362 1.467 1.012z"/>
    </g>
</svg>
