<svg id="Layer_1" data-name="Layer 1" xmlns="http://www.w3.org/2000/svg" viewBox="0 0 489.73518 422.69732"><title>ios-android-1</title><g id="Layer_2" data-name="Layer 2"><path d="M237.27044,390.32335a12.933,12.933,0,0,0-.93794,4.81647,36.75738,36.75738,0,0,1-36.618,36.68133H69.73279A36.7574,36.7574,0,0,1,33.10215,395.1398a13.49391,13.49391,0,0,0-13.727-13.75232,14.08971,14.08971,0,0,0-13.727,13.75232c0,34.85619,28.37924,64.186,64.08461,64.186H199.70185a63.95789,63.95789,0,0,0,53.24753-28.62006A63.755,63.755,0,0,0,301.317,452.91231H431.29876c35.70538,0,64.0846-29.34254,64.0846-65.11129V164.08794c0-34.85614-28.37922-64.186-64.0846-64.186H301.32968a63.74233,63.74233,0,0,0-37.53057,12.25669V100.81453c0-34.84347-28.39191-64.186-64.0846-64.186H69.73279a64.31488,64.31488,0,0,0-64.08461,64.186,13.49365,13.49365,0,0,0,13.727,13.75233,14.09208,14.09208,0,0,0,13.73966-13.75233,36.75739,36.75739,0,0,1,36.618-36.694H199.70185a36.75739,36.75739,0,0,1,36.63064,36.694V318.12678a14.09855,14.09855,0,0,0,13.727,13.75232,13.50393,13.50393,0,0,0,13.73965-13.75232V168.84107a13.11461,13.11461,0,0,0,.9126-4.76579,36.75739,36.75739,0,0,1,36.618-36.66866H431.31143a36.75741,36.75741,0,0,1,36.63063,36.66866v224.651A36.7574,36.7574,0,0,1,431.31143,425.395H301.32968A36.75739,36.75739,0,0,1,264.699,388.72631a13.727,13.727,0,1,0-27.454,0C237.24508,389.25866,237.24508,389.791,237.27044,390.32335Z" transform="translate(-5.64818 -36.62853)" style="fill:#232a35"/><ellipse cx="128.15654" cy="327.34357" rx="29.29183" ry="29.34254" style="fill:#232a35"/></g></svg>