<svg id="Layer_1" data-name="Layer 1" xmlns="http://www.w3.org/2000/svg" viewBox="0 0 490.92838 491.2046"><title>media-1</title><g id="Messenger"><path d="M250.26615,4.87726C117.60115,2.25,7.81984,107.45709,4.802,240.11378A230.73635,230.73635,0,0,0,85.19148,413.98425L66.168,482.91879a10.22767,10.22767,0,0,0,10.22767,12.88685,10.22759,10.22759,0,0,0,4.29562,0l77.73033-36.41054a253.4413,253.4413,0,0,0,91.84451,15.95519c132.665,2.62726,242.4463-102.57982,245.46419-235.23652C492.71245,107.45709,382.93115,2.25,250.26615,4.87726Zm160.5745,181.02985L288.10855,308.6392a10.22769,10.22769,0,0,1-13.90964,0L208.12812,252.387,101.76031,310.27563a10.22767,10.22767,0,0,1-12.06866-16.15973l122.7321-122.7321a10.22767,10.22767,0,0,1,13.90964,0l66.27533,56.86587L398.97654,170.361a10.22767,10.22767,0,0,1,12.06866,16.15973Z" transform="translate(-4.80195 -4.82911)" style="fill:#303c42"/></g></svg>