<svg xmlns="http://www.w3.org/2000/svg" width="40" height="40" viewBox="0 0 40 40">
    <g fill="#232A35" fill-rule="evenodd" transform="translate(-.364 -.364)">
        <path d="M32.161 4.567A19.887 19.887 0 0 0 20.364.655C9.527.655.654 9.527.654 20.364c0 3.708 1.077 7.348 3.101 10.533l-.482.885c-.728 1.309-.51 2.836.509 3.927a3.422 3.422 0 0 0 2.4 1.018 3.31 3.31 0 0 0 1.454-.363L26.4 27.345c.145-.072.29-.218.436-.436l6.11-10.036c.363-.51.145-1.237-.364-1.528-.51-.363-1.237-.145-1.527.364l-5.964 9.746L6.69 34.4c-.655.364-1.164-.073-1.31-.218-.072-.146-.508-.655-.145-1.31l.873-1.6c.291-.508.146-1.236-.436-1.527a1.481 1.481 0 0 0-.064-.03 17.394 17.394 0 0 1-2.7-9.351c0-9.6 7.855-17.455 17.455-17.455 3.389 0 6.62.94 9.387 2.73L18.4 10.692c-3.2 1.382-5.964 3.927-7.636 7.054l-3.419 6.328c-.29.509-.145 1.236.437 1.527.509.29 1.236.145 1.527-.436l3.418-6.328c1.455-2.69 3.855-4.872 6.618-6.109l14.546-6.472c.727-.291 1.164.145 1.309.29.145.146.51.655.145 1.31l-.8 1.381c-.218.364-.218.8 0 1.164 3.419 5.236 3.273 9.89 3.273 9.964 0 9.6-7.854 17.454-17.454 17.454-.655 0-1.164.437-1.164 1.091 0 .655.51 1.164 1.164 1.164 10.836 0 19.709-8.873 19.563-19.564.073-.218.218-5.018-3.2-10.618l.51-.8c.8-1.31.654-2.91-.364-4-1.018-1.164-2.546-1.455-3.928-.873l-.784.35z"/>
        <circle cx="20.364" cy="20" r="2.909"/>
    </g>
</svg>
