<svg id="Layer_1" data-name="Layer 1" xmlns="http://www.w3.org/2000/svg" viewBox="0 0 490.90482 492.40772"><title>strategy-1</title><path d="M398.33794,52.10118A248.42112,248.42112,0,0,0,250.97415,3.23391C115.60232,3.23391,4.764,114.05969,4.764,249.43152A245.15809,245.15809,0,0,0,43.5006,381.00589l-6.021,11.0551c-9.09391,16.35155-6.37073,35.42628,6.35824,49.05465a42.74642,42.74642,0,0,0,29.97992,12.7165,41.34761,41.34761,0,0,0,18.16284-4.53445l234.393-112.66208c1.81129-.8994,3.62259-2.72318,5.44636-5.44636l76.32387-125.36605c4.53445-6.37074,1.81129-15.45214-4.54693-19.08721-6.37071-4.53446-15.45214-1.81129-19.07473,4.547L310.02209,313.0264,80.16355,424.76411c-8.182,4.54693-14.54026-.91191-16.364-2.72316-.8994-1.82378-6.34575-8.182-1.81129-16.36406l10.9052-19.98662c3.63506-6.34574,1.82378-15.43966-5.44635-19.07473q-.3952-.19689-.79947-.37476A217.27945,217.27945,0,0,1,32.92019,249.43152c0-119.91969,98.12179-218.04146,218.04147-218.04146,42.33415,0,82.69463,11.74214,117.259,34.10216l-141.78,63.12022c-39.97323,17.26344-74.50011,49.05465-95.38611,88.116L88.34557,295.7755c-3.62257,6.35825-1.81129,15.43966,5.45884,19.07473,6.35825,3.62259,15.43965,1.81129,19.07472-5.44636l42.69641-79.047c18.17533-33.6025,48.15525-60.85924,82.66964-76.31139L419.94846,73.19957c9.08143-3.63506,14.54028,1.81129,16.35152,3.62257a13.49194,13.49194,0,0,1,1.81129,16.364l-9.9933,17.25095a13.96076,13.96076,0,0,0,0,14.54026c42.70888,65.40619,40.8851,123.54225,40.8851,124.46665,0,119.91969-98.10929,218.029-218.029,218.029-8.182,0-14.54026,5.45885-14.54026,13.62837a14.35811,14.35811,0,0,0,14.54026,14.54028c135.35935,0,246.19763-110.83828,244.3738-244.38631.91191-2.72318,2.72316-62.683-39.97324-132.63617l6.37071-9.99331c9.9933-16.364,8.16952-36.35065-4.54693-49.96653-12.7165-14.54026-31.80372-18.17533-49.06715-10.9052l-9.79345,4.37207Z" transform="translate(-4.76404 -3.23391)" style="fill:#232a35"/><circle cx="246.2101" cy="241.65065" r="36.33817" style="fill:#232a35"/></svg>