<svg id="Layer_1" data-name="Layer 1" xmlns="http://www.w3.org/2000/svg" viewBox="0 0 490.95601 363.21819"><title>vr-1</title><path d="M361.10513,425.61777h-31.8408a12.46484,12.46484,0,1,1,0-24.92883h31.8408c61.1567,0,110.59166-49.01221,110.59166-109.67766,0-60.654-49.43491-109.67766-110.59164-109.67766H141.58986c-61.15672,0-110.59164,49.02363-110.59164,109.67766,0,60.66545,49.43492,109.67766,110.59164,109.67766h24.30045c15.91468,0,28.48193-14.121,30.99537-16.6116l28.49334-33.246a34.48,34.48,0,0,1,25.96848-11.60754c10.05378,0,18.42814,4.9812,24.30046,12.453l.834.834c3.34745,4.15861,10.88778,14.13242,20.10757,20.77022,5.86091,4.15861,6.70633,11.64184,2.51344,17.457s-11.73323,6.64922-17.59413,2.4906c-11.73323-8.30579-20.94158-20.77022-25.13447-25.76281l-.834-.82259a5.68112,5.68112,0,0,0-5.0269-2.502,9.554,9.554,0,0,0-6.70633,2.502l-28.48192,33.23462c-5.0269,5.81521-23.46644,25.7514-50.26892,25.7514H140.75586c-74.56937-.01144-135.7261-60.66547-135.7261-134.61791,0-73.941,62.00215-134.595,136.5601-134.595H360.25968c74.56936,0,135.72609,60.654,135.72609,134.595C495.98577,364.96374,435.66307,425.61777,361.10513,425.61777Z" transform="translate(-5.02976 -62.41102)" style="fill:#232a35"/><path d="M289.04918,250.3049H213.64579a20.65071,20.65071,0,0,1-20.94158-20.7702v-3.32461a20.65071,20.65071,0,0,1,20.94158-20.7702h75.40339a20.65071,20.65071,0,0,1,20.94158,20.7702v3.31318A21.19009,21.19009,0,0,1,289.04918,250.3049ZM393.77992,178.843c-1.67943-3.31318-39.38114-88.07344-143.26645-91.398-81.27569-2.47917-123.15884,34.08-137.40552,51.52565a11.94854,11.94854,0,0,1-15.91468,2.4906c-6.70633-4.15861-8.38577-12.46441-3.35887-18.27961,18.43955-20.78163,66.195-63.156,157.5131-60.66545,119.81141,3.3246,163.374,102.20587,165.05343,106.36449Z" transform="translate(-5.02976 -62.41102)" style="fill:#232a35"/></svg>