<svg id="Layer_1" data-name="Layer 1" xmlns="http://www.w3.org/2000/svg" viewBox="0 0 491.86223 407.57448"><title>web-and-app-1</title><path d="M489.93539,390.73115a14.49837,14.49837,0,0,0-.78827-3.0421c-.81051-1.621-2.42034-6.43948-4.84072-12.09068-8.85984-24.15915-17.71967-45.909-21.761-53.159a34.18489,34.18489,0,0,0-9.69254-10.9138,40.3637,40.3637,0,0,0,10.503-28.55576,12.09069,12.09069,0,0,0-24.18136,0A18.22721,18.22721,0,0,1,420.65548,301.5H183.72713a12.07957,12.07957,0,1,0,.0111,24.15913H406.14441c20.15111,0,31.42023,2.42036,34.651,8.06045,4.03021,6.43948,15.32153,35.43932,20.95052,49.93925,2.03175,5.39584,3.48619,9.65923,4.38551,11.85753a10.88011,10.88011,0,0,0,1.25458,3.4418c2.42034,4.03021,5.64009,12.07958,3.21975,16.92026-3.21975,5.64009-16.1098,11.26908-43.51087,11.26908H74.145c-13.70054,0-40.30225,0-45.13185-7.25-.79938-2.40924-.79938-6.4395,1.60987-12.07958l20.15112-53.95838c12.09067-25.78012,17.73077-28.20048,44.32137-28.20048a12.07958,12.07958,0,1,0-.01111-24.15913c-4.219,0-8.13816.08881-11.802.33308a10.94986,10.94986,0,0,0-2.69792-.33308,18.23648,18.23648,0,0,1-18.53015-18.53016V85.63316A18.239,18.239,0,0,1,80.59559,67.103h340.8593a18.239,18.239,0,0,1,18.54123,18.53015v53.159a12.08513,12.08513,0,0,0,24.17027,0V84.83378a42.977,42.977,0,0,0-42.7115-42.7004H80.58448A42.97009,42.97009,0,0,0,37.89519,84.82267V282.96982A42.53822,42.53822,0,0,0,50.31894,312.9134c-7.73848,6.43948-14.31118,16.32074-21.29468,31.27587L8.07375,398.14763c-5.64009,13.70056-5.64009,24.98073.81049,33.84057,12.09067,17.71967,40.29114,17.71967,65.27188,17.71967h352.95c33.85166,0,55.60155-7.25,64.47248-20.93942,6.02867-10.56962,5.70671-23.24875-1.63207-38.03733Z" transform="translate(-3.93989 -42.13338)" style="fill:#232a35"/><path d="M290.10064,396.54889H209.51836c-10.46971,0-19.34064-9.67032-16.92028-20.14l1.60987-9.65923a17.24225,17.24225,0,0,1,16.93138-13.70053h77.35143a17.23267,17.23267,0,0,1,16.92028,13.68944l1.621,9.65922C309.44126,386.06811,301.39193,396.54891,290.10064,396.54889Z" transform="translate(-3.93989 -42.13338)" style="fill:#232a35"/></svg>