<svg xmlns="http://www.w3.org/2000/svg" width="45" height="37" viewBox="0 0 45 37">
    <g fill="#232A35" fill-rule="evenodd">
        <path d="M44.055 31.398a1.306 1.306 0 0 0-.071-.274c-.073-.146-.218-.58-.436-1.089-.798-2.176-1.596-4.135-1.96-4.788a3.079 3.079 0 0 0-.873-.983c.618-.685.98-1.589.946-2.572 0-.58-.508-1.088-1.088-1.088-.581 0-1.09.508-1.09 1.088 0 .943-.725 1.669-1.668 1.669h-21.34c-.58 0-1.088.508-1.088 1.088 0 .58.508 1.088 1.089 1.088h20.032c1.815 0 2.83.218 3.121.726.363.58 1.38 3.192 1.887 4.498.183.486.314.87.395 1.068a.98.98 0 0 0 .113.31c.218.363.508 1.088.29 1.524-.29.508-1.451 1.015-3.919 1.015H6.605c-1.234 0-3.63 0-4.065-.653-.072-.217-.072-.58.145-1.088l1.815-4.86c1.089-2.322 1.597-2.54 3.992-2.54.58 0 1.089-.508 1.089-1.088 0-.58-.508-1.088-1.09-1.088-.38 0-.733.008-1.063.03-.079-.02-.16-.03-.243-.03-.943 0-1.669-.726-1.669-1.669V3.918c0-.943.726-1.669 1.67-1.669h30.701c.944 0 1.67.726 1.67 1.669v4.788c0 .58.508 1.088 1.088 1.088.58 0 1.089-.508 1.089-1.088v-4.86C41.734 1.74 39.992 0 37.887 0H7.185C5.081 0 3.34 1.741 3.34 3.845v17.847c0 1.045.429 2 1.119 2.697-.697.58-1.289 1.47-1.918 2.817l-1.887 4.86c-.508 1.234-.508 2.25.073 3.048 1.089 1.596 3.629 1.596 5.879 1.596h31.79c3.049 0 5.008-.653 5.807-1.886.543-.952.514-2.094-.147-3.426z"/>
        <path d="M26.056 31.922h-7.258c-.943 0-1.742-.871-1.524-1.814l.145-.87a1.553 1.553 0 0 1 1.525-1.234h6.967c.726 0 1.38.508 1.524 1.233l.146.87c.217.871-.508 1.815-1.525 1.815z"/>
    </g>
</svg>
