<?xml version="1.0" standalone="no"?>
<!DOCTYPE svg PUBLIC "-//W3C//DTD SVG 20010904//EN"
 "http://www.w3.org/TR/2001/REC-SVG-20010904/DTD/svg10.dtd">
<svg version="1.0" xmlns="http://www.w3.org/2000/svg"
 width="117.000000pt" height="99.000000pt" viewBox="0 0 117.000000 99.000000"
 preserveAspectRatio="xMidYMid meet">
<metadata>
Created by potrace 1.15, written by Peter Selinger 2001-2017
</metadata>
<g transform="translate(0.000000,99.000000) scale(0.100000,-0.100000)"
fill="#000000" stroke="none">
<path d="M159 953 c-100 -51 -149 -149 -149 -295 0 -134 50 -237 179 -371 79
-82 168 -156 274 -226 82 -55 120 -63 125 -25 2 16 -15 32 -78 73 -188 123
-340 273 -403 400 -27 56 -31 74 -32 150 0 75 4 94 28 143 32 65 62 91 126
108 70 19 120 5 211 -55 84 -56 143 -74 197 -60 16 3 57 25 93 48 62 41 67 42
146 42 75 0 86 -3 125 -30 64 -45 94 -111 93 -205 0 -67 -4 -83 -39 -148 l-38
-73 -21 38 c-51 91 -166 114 -166 33 0 -20 16 -42 61 -85 l60 -58 -28 -29
c-15 -16 -58 -54 -95 -85 -68 -55 -84 -87 -52 -100 8 -3 27 1 41 8 50 27 213
191 262 264 67 101 85 157 79 259 -7 129 -60 211 -166 258 -98 44 -196 33
-298 -33 -82 -53 -120 -53 -205 3 -99 64 -136 78 -210 78 -52 0 -77 -6 -120
-27z"/>
</g>
</svg>
