<?xml version="1.0" standalone="no"?>
<!DOCTYPE svg PUBLIC "-//W3C//DTD SVG 20010904//EN"
 "http://www.w3.org/TR/2001/REC-SVG-20010904/DTD/svg10.dtd">
<svg version="1.0" xmlns="http://www.w3.org/2000/svg"
 width="132.000000pt" height="117.000000pt" viewBox="0 0 132.000000 117.000000"
 preserveAspectRatio="xMidYMid meet">
<metadata>
Created by potrace 1.15, written by Peter Selinger 2001-2017
</metadata>
<g transform="translate(0.000000,117.000000) scale(0.100000,-0.100000)"
fill="#000000" stroke="none">
<path d="M313 1155 c-118 -32 -207 -105 -259 -210 -26 -54 -29 -70 -29 -160 0
-89 3 -106 28 -156 38 -78 96 -141 160 -174 l55 -29 4 -67 c16 -221 221 -382
443 -348 175 27 302 160 328 344 l11 72 46 22 c61 29 131 101 167 171 25 50
28 65 28 160 0 95 -3 111 -28 162 -101 206 -368 282 -561 160 -34 -21 -42 -23
-60 -12 -118 74 -223 94 -333 65z m210 -75 c30 -11 62 -29 72 -40 16 -18 16
-20 -5 -50 -39 -55 5 -96 47 -44 l23 29 19 -25 c11 -13 25 -42 31 -65 23 -77
29 -87 53 -83 36 5 28 81 -17 163 l-36 65 33 20 c129 79 294 60 400 -48 65
-66 91 -129 90 -217 -1 -112 -46 -197 -139 -261 -30 -21 -56 -35 -58 -33 -2 2
-11 21 -19 42 -11 26 -22 37 -37 37 -27 0 -35 -24 -22 -66 l10 -34 -56 0 c-30
0 -79 7 -108 16 -94 30 -117 -12 -30 -55 39 -20 65 -25 129 -25 l79 -1 -5 -53
c-20 -191 -221 -323 -410 -268 -116 34 -214 148 -224 263 l-5 58 42 0 c53 0
77 27 46 51 -11 8 -33 14 -49 14 -25 0 -27 3 -21 23 3 12 13 34 20 48 15 29
101 119 114 119 14 0 21 32 9 46 -20 25 -46 15 -103 -37 -36 -33 -67 -73 -87
-114 -29 -59 -33 -64 -53 -53 -144 75 -212 265 -144 408 74 158 250 230 411
170z"/>
<path d="M631 761 c-29 -10 -67 -33 -84 -49 -27 -27 -29 -34 -19 -56 15 -34
96 -87 142 -93 36 -5 38 -4 51 33 7 22 13 65 13 97 1 47 -3 62 -19 73 -23 17
-18 17 -84 -5z"/>
</g>
</svg>
