<svg xmlns="http://www.w3.org/2000/svg" width="39" height="34" viewBox="0 0 39 34">
    <g fill="#232A35" fill-rule="evenodd">
        <path d="M18.274 28.556c-.048.12-.074.248-.074.38a2.9 2.9 0 0 1-2.889 2.894H5.056a2.9 2.9 0 0 1-2.89-2.894c0-.65-.505-1.085-1.083-1.085-.577 0-1.083.506-1.083 1.085C0 31.686 2.239 34 5.056 34H15.31a5.046 5.046 0 0 0 4.201-2.258 5.03 5.03 0 0 0 3.816 1.752h10.255c2.817 0 5.056-2.315 5.056-5.137v-17.65c0-2.75-2.239-5.064-5.056-5.064H23.328a5.029 5.029 0 0 0-2.961.967v-.895c0-2.749-2.24-5.064-5.056-5.064H5.056C2.31.651 0 2.894 0 5.715 0 6.366.506 6.8 1.083 6.8c.578 0 1.084-.506 1.084-1.085A2.9 2.9 0 0 1 5.056 2.82H15.31A2.9 2.9 0 0 1 18.2 5.715V22.86c0 .578.506 1.085 1.083 1.085.65 0 1.084-.507 1.084-1.085V11.082c.046-.118.072-.245.072-.376a2.9 2.9 0 0 1 2.889-2.893h10.255a2.9 2.9 0 0 1 2.89 2.893V28.43a2.9 2.9 0 0 1-2.89 2.893H23.328a2.9 2.9 0 0 1-2.89-2.893c0-.579-.505-1.085-1.082-1.085-.578 0-1.084.506-1.084 1.085 0 .042 0 .084.002.126z"/>
        <ellipse cx="10.111" cy="26.477" rx="2.311" ry="2.315"/>
    </g>
</svg>
