<?xml version="1.0" encoding="utf-8"?>
<!-- Generator: Adobe Illustrator 21.0.0, SVG Export Plug-In . SVG Version: 6.00 Build 0)  -->
<svg version="1.1"
	 id="svg1" inkscape:version="0.38.1" sodipodi:docbase="/home/danny/flat/scalable/actions" sodipodi:docname="line_line_arrow_end.svg" sodipodi:version="0.32" xmlns:inkscape="http://www.inkscape.org/namespaces/inkscape" xmlns:sodipodi="http://sodipodi.sourceforge.net/DTD/sodipodi-0.dtd"
	 xmlns="http://www.w3.org/2000/svg" xmlns:xlink="http://www.w3.org/1999/xlink" x="0px" y="0px" width="60px" height="60px"
	 viewBox="0 0 60 60" style="enable-background:new 0 0 60 60;" xml:space="preserve">
<style type="text/css">
	.st0{display:none;}
	.st1{fill:#333333;}
</style>
<g id="Layer_4" class="st0">
	
		<sodipodi:namedview  bordercolor="#666666" borderopacity="1.0" id="base" inkscape:cx="37.697540" inkscape:cy="17.130398" inkscape:pageopacity="0.0" inkscape:pageshadow="2" inkscape:window-height="685" inkscape:window-width="1016" inkscape:window-x="0" inkscape:window-y="0" inkscape:zoom="6.9465337" pagecolor="#ffffff" showguides="true" snaptoguides="true">
		</sodipodi:namedview>
</g>
<g id="Layer_3">
	<g id="path831">
		<path class="st1" d="M54.7,33.7H3.6c-1.4,0-2.5-1.1-2.5-2.5s1.1-2.5,2.5-2.5h51.1c1.4,0,2.5,1.1,2.5,2.5S56.1,33.7,54.7,33.7z"/>
	</g>
</g>
<g id="Layer_2">
	<g id="path869">
		<path class="st1" d="M43.5,43.7c-0.7,0-1.4-0.3-1.9-0.9c-0.9-1.1-0.7-2.6,0.4-3.5L52,31l-10.3-7.4c-1.1-0.8-1.4-2.4-0.6-3.5
			c0.8-1.1,2.4-1.4,3.5-0.6l12.9,9.3c0.6,0.5,1,1.2,1,2s-0.3,1.5-0.9,2L45.1,43.1C44.7,43.5,44.1,43.7,43.5,43.7z"/>
	</g>
</g>
</svg>
