<?xml version="1.0" standalone="no"?>
<!DOCTYPE svg PUBLIC "-//W3C//DTD SVG 20010904//EN"
 "http://www.w3.org/TR/2001/REC-SVG-20010904/DTD/svg10.dtd">
<svg version="1.0" xmlns="http://www.w3.org/2000/svg"
 width="120.000000pt" height="120.000000pt" viewBox="0 0 120.000000 120.000000"
 preserveAspectRatio="xMidYMid meet">
<metadata>
Created by potrace 1.15, written by Peter Selinger 2001-2017
</metadata>
<g transform="translate(0.000000,120.000000) scale(0.100000,-0.100000)"
fill="#000000" stroke="none">
<path d="M452 1170 c-40 -11 -101 -34 -135 -52 -73 -39 -182 -143 -222 -212
-102 -175 -111 -391 -24 -565 24 -48 28 -64 20 -80 -21 -39 -13 -90 19 -123
26 -26 36 -30 68 -25 20 3 166 67 323 143 l287 137 96 159 c54 88 96 167 94
176 -2 11 -13 17 -28 17 -21 0 -38 -22 -117 -149 l-92 -150 -273 -132 c-150
-73 -283 -133 -294 -134 -32 0 -37 26 -14 70 l20 39 -25 36 c-43 64 -67 144
-72 240 -10 169 34 284 151 400 39 39 94 82 122 97 142 76 338 77 481 4 l47
-23 -50 -22 c-439 -195 -443 -197 -564 -419 -65 -120 -72 -157 -32 -157 20 0
34 18 85 115 46 87 78 131 127 180 63 63 73 68 319 178 200 89 256 110 267
101 18 -15 18 -31 -2 -72 -16 -33 -15 -35 14 -88 90 -161 95 -351 14 -503 -34
-66 -152 -184 -218 -218 -60 -32 -152 -58 -209 -58 -51 0 -68 -11 -63 -41 3
-23 6 -24 74 -23 225 4 455 188 518 414 39 142 28 273 -37 413 -31 66 -33 77
-21 98 23 42 17 87 -16 121 -29 28 -35 30 -83 25 -46 -5 -61 -1 -132 34 -146
71 -278 87 -423 49z"/>
<path d="M562 690 c-12 -5 -30 -25 -39 -45 -15 -32 -15 -38 -1 -68 10 -20 29
-39 47 -47 43 -17 87 2 109 47 14 30 14 36 -1 68 -23 48 -65 64 -115 45z"/>
</g>
</svg>
