<?xml version="1.0" standalone="no"?>
<!DOCTYPE svg PUBLIC "-//W3C//DTD SVG 20010904//EN"
 "http://www.w3.org/TR/2001/REC-SVG-20010904/DTD/svg10.dtd">
<svg version="1.0" xmlns="http://www.w3.org/2000/svg"
 width="132.000000pt" height="96.000000pt" viewBox="0 0 132.000000 96.000000"
 preserveAspectRatio="xMidYMid meet">
<metadata>
Created by potrace 1.14, written by Peter Selinger 2001-2017
</metadata>
<g transform="translate(0.000000,96.000000) scale(0.100000,-0.100000)"
fill="#000000" stroke="none">
<path d="M585 954 c-119 -15 -198 -45 -284 -108 -54 -40 -70 -68 -51 -91 18
-21 24 -19 75 25 60 52 108 76 187 95 117 27 242 14 340 -36 41 -21 138 -105
138 -120 0 -4 -159 -9 -353 -11 l-352 -3 -67 -33 c-222 -109 -272 -390 -99
-563 68 -67 141 -98 252 -106 100 -7 147 13 219 96 29 33 58 61 64 61 7 0 30
-18 51 -40 71 -73 116 -33 49 43 -82 92 -105 90 -205 -14 l-78 -81 -93 4
c-106 5 -153 24 -214 85 -55 57 -78 115 -78 198 0 118 59 210 168 261 51 24
53 24 406 24 353 0 355 0 406 -24 109 -51 168 -143 168 -261 0 -83 -23 -141
-78 -198 -60 -60 -108 -80 -215 -86 -72 -5 -96 -10 -104 -23 -46 -72 188 -62
305 14 210 134 209 452 -1 588 -29 18 -60 49 -74 73 -32 53 -131 148 -183 175
-79 40 -218 66 -299 56z"/>
<path d="M526 564 c-24 -23 -20 -70 6 -88 32 -23 224 -23 256 0 26 18 30 65 6
88 -23 23 -245 23 -268 0z"/>
</g>
</svg>
