<?xml version="1.0" standalone="no"?>
<!DOCTYPE svg PUBLIC "-//W3C//DTD SVG 20010904//EN"
 "http://www.w3.org/TR/2001/REC-SVG-20010904/DTD/svg10.dtd">
<svg version="1.0" xmlns="http://www.w3.org/2000/svg"
 width="135.000000pt" height="111.000000pt" viewBox="0 0 135.000000 111.000000"
 preserveAspectRatio="xMidYMid meet">
<metadata>
Created by potrace 1.14, written by Peter Selinger 2001-2017
</metadata>
<g transform="translate(0.000000,111.000000) scale(0.100000,-0.100000)"
fill="#000000" stroke="none">
<path d="M159 1093 c-58 -35 -59 -45 -59 -365 0 -240 3 -298 15 -322 14 -26
13 -30 -5 -53 -25 -32 -100 -224 -100 -258 0 -38 40 -72 91 -80 24 -3 294 -5
599 -3 535 3 556 4 589 23 58 34 59 60 11 191 -23 63 -50 124 -60 136 -15 20
-16 24 -2 48 20 34 9 80 -18 80 -13 0 -26 -13 -37 -37 l-18 -38 -344 -5 c-318
-5 -345 -6 -355 -23 -9 -15 -7 -21 8 -33 16 -11 78 -14 352 -14 183 0 339 -3
347 -6 19 -7 101 -209 93 -229 -3 -8 -17 -20 -31 -25 -28 -11 -1093 -14 -1132
-4 -31 8 -29 27 12 136 38 102 60 128 110 128 31 0 65 21 65 39 0 17 -27 31
-60 31 -20 0 -41 5 -48 12 -17 17 -17 589 0 606 9 9 132 12 494 12 435 0 483
-2 495 -16 9 -11 16 -52 19 -108 5 -89 6 -91 30 -91 25 0 25 1 28 97 2 73 -1
105 -13 128 -31 61 -26 60 -562 60 -433 -1 -491 -2 -514 -17z"/>
<path d="M536 254 c-23 -22 -21 -81 3 -94 11 -5 73 -10 139 -10 105 0 121 2
137 20 18 20 15 61 -7 87 -17 21 -252 18 -272 -3z"/>
</g>
</svg>
